<svg width="95" height="107" viewBox="0 0 95 107" fill="none" xmlns="http://www.w3.org/2000/svg">
<rect width="95" height="107" fill="white"/>
<path d="M21.5195 89H18.5117V76.9785H14.1953V74.3516H25.8457V76.9785H21.5195V89ZM34.6738 87.9062C33.4629 88.7656 32.138 89.1953 30.6992 89.1953C29.6315 89.1953 28.6712 88.9674 27.8184 88.5117C26.972 88.0495 26.3014 87.4245 25.8066 86.6367C25.3184 85.849 25.0742 84.9603 25.0742 83.9707C25.0742 83.0267 25.2956 82.1836 25.7383 81.4414C26.1875 80.6992 26.7962 80.1133 27.5645 79.6836C28.3327 79.2539 29.2051 79.0391 30.1816 79.0391C31.1908 79.0391 32.0794 79.2767 32.8477 79.752C33.6159 80.2207 34.2148 80.8783 34.6445 81.7246C35.0742 82.5645 35.2891 83.5378 35.2891 84.6445V84.957H28.0918C28.209 85.3411 28.401 85.6797 28.668 85.9727C28.9349 86.2591 29.2669 86.487 29.6641 86.6562C30.0612 86.8255 30.5169 86.9102 31.0312 86.9102C32.0273 86.9102 32.9551 86.5879 33.8145 85.9434L34.6738 87.9062ZM27.9648 83.5312H32.7012C32.6491 83.1081 32.5156 82.737 32.3008 82.418C32.0924 82.0924 31.8158 81.8385 31.4707 81.6562C31.1322 81.474 30.7513 81.3828 30.3281 81.3828C29.8984 81.3828 29.5143 81.4772 29.1758 81.666C28.8438 81.8548 28.5736 82.1087 28.3652 82.4277C28.1569 82.7467 28.0234 83.1146 27.9648 83.5312ZM45.7188 87.4473C45.2435 87.9941 44.6608 88.4238 43.9707 88.7363C43.2806 89.0423 42.5221 89.1953 41.6953 89.1953C40.6927 89.1953 39.7943 88.9772 39 88.541C38.2122 88.0983 37.5905 87.4928 37.1348 86.7246C36.6855 85.9564 36.4609 85.0872 36.4609 84.1172C36.4609 83.1406 36.6855 82.2715 37.1348 81.5098C37.5905 80.7415 38.2122 80.1393 39 79.7031C39.7943 79.2604 40.6927 79.0391 41.6953 79.0391C42.5156 79.0391 43.2708 79.1921 43.9609 79.498C44.651 79.804 45.2337 80.2272 45.709 80.7676L44.0586 82.4961C43.8047 82.2031 43.4824 81.9753 43.0918 81.8125C42.7077 81.6432 42.304 81.5586 41.8809 81.5586C41.3926 81.5586 40.9564 81.6693 40.5723 81.8906C40.1882 82.1055 39.8854 82.4049 39.6641 82.7891C39.4427 83.1667 39.332 83.6029 39.332 84.0977C39.332 84.599 39.4427 85.0449 39.6641 85.4355C39.8854 85.8262 40.1882 86.1322 40.5723 86.3535C40.9564 86.5684 41.3926 86.6758 41.8809 86.6758C42.304 86.6758 42.7109 86.5944 43.1016 86.4316C43.4922 86.2624 43.8112 86.0312 44.0586 85.7383L45.7188 87.4473ZM47.4375 89V74.3516H50.2402V80.3867C50.9434 79.4883 51.9525 79.0391 53.2676 79.0391C54.498 79.0391 55.4583 79.4199 56.1484 80.1816C56.8385 80.9368 57.1836 81.9948 57.1836 83.3555V89H54.3809V84.0977C54.3809 83.2839 54.2018 82.6556 53.8438 82.2129C53.4857 81.7702 52.9844 81.5488 52.3398 81.5488C51.6823 81.5488 51.168 81.7734 50.7969 82.2227C50.4258 82.6719 50.2402 83.2969 50.2402 84.0977V89H47.4375ZM69.1172 89H66.3145V84C66.3145 83.2383 66.1322 82.6426 65.7676 82.2129C65.4095 81.7767 64.918 81.5586 64.293 81.5586C63.6419 81.5586 63.1243 81.7865 62.7402 82.2422C62.3626 82.6914 62.1738 83.3034 62.1738 84.0781V89H59.3711V79.2344H61.6367L61.7344 80.7969C62.0859 80.224 62.5449 79.7878 63.1113 79.4883C63.6777 79.1888 64.3451 79.0391 65.1133 79.0391C66.3568 79.0391 67.3333 79.4232 68.043 80.1914C68.7591 80.9531 69.1172 82.0078 69.1172 83.3555V89ZM75.9434 89.1953C74.9408 89.1953 74.0423 88.9772 73.248 88.541C72.4538 88.0983 71.8288 87.4961 71.373 86.7344C70.9238 85.9661 70.6992 85.0938 70.6992 84.1172C70.6992 83.1471 70.9238 82.2812 71.373 81.5195C71.8288 80.7513 72.4538 80.1458 73.248 79.7031C74.0423 79.2604 74.9408 79.0391 75.9434 79.0391C76.946 79.0391 77.8379 79.2604 78.6191 79.7031C79.4069 80.1458 80.0254 80.7513 80.4746 81.5195C80.9303 82.2812 81.1582 83.1471 81.1582 84.1172C81.1582 85.0938 80.9303 85.9661 80.4746 86.7344C80.0254 87.4961 79.4069 88.0983 78.6191 88.541C77.8379 88.9772 76.946 89.1953 75.9434 89.1953ZM75.9336 86.6855C76.3828 86.6855 76.7832 86.5749 77.1348 86.3535C77.4928 86.1257 77.7728 85.8197 77.9746 85.4355C78.1829 85.0449 78.2871 84.599 78.2871 84.0977C78.2871 83.6159 78.1829 83.1829 77.9746 82.7988C77.7728 82.4147 77.4928 82.112 77.1348 81.8906C76.7832 81.6628 76.3828 81.5488 75.9336 81.5488C75.4779 81.5488 75.071 81.6628 74.7129 81.8906C74.3613 82.112 74.0814 82.4147 73.873 82.7988C73.6712 83.1829 73.5703 83.6159 73.5703 84.0977C73.5703 84.599 73.6712 85.0449 73.873 85.4355C74.0814 85.8197 74.3613 86.1257 74.7129 86.3535C75.071 86.5749 75.4779 86.6855 75.9336 86.6855Z" fill="black"/>
<rect x="10" y="9" width="63" height="13" rx="2" fill="black"/>
<circle cx="16.5" cy="15.5" r="2.5" fill="white"/>
<circle cx="24.5" cy="15.5" r="2.5" fill="white"/>
<rect x="44" y="14" width="12" height="3" rx="1" fill="white"/>
<rect x="58" y="14" width="12" height="3" rx="1" fill="white"/>
<rect x="22" y="27" width="63" height="13" rx="2" fill="black"/>
<circle cx="28.5" cy="33.5" r="2.5" fill="white"/>
<circle cx="36.5" cy="33.5" r="2.5" fill="white"/>
<rect x="56" y="32" width="12" height="3" rx="1" fill="white"/>
<rect x="70" y="32" width="12" height="3" rx="1" fill="white"/>
<path d="M61.125 71.125V59.875H69.875V71.125L65.5 69.25L61.125 71.125Z" fill="black"/>
<rect x="10" y="45" width="63" height="13" rx="2" fill="black"/>
<circle cx="16.5" cy="51.5" r="2.5" fill="white"/>
<circle cx="24.5" cy="51.5" r="2.5" fill="white"/>
<rect x="44" y="50" width="12" height="3" rx="1" fill="white"/>
<rect x="58" y="50" width="12" height="3" rx="1" fill="white"/>
</svg>
